<?xml version="1.0" encoding="UTF-8" standalone="no"?>
<svg
   width="396.31757"
   height="95.157509"
   viewBox="0 0 104.85577 25.177805"
   version="1.1"
   id="svg830"
   sodipodi:docname="wide-logo.svg"
   inkscape:version="1.1.2 (0a00cf5339, 2022-02-04)"
   xmlns:inkscape="http://www.inkscape.org/namespaces/inkscape"
   xmlns:sodipodi="http://sodipodi.sourceforge.net/DTD/sodipodi-0.dtd"
   xmlns="http://www.w3.org/2000/svg"
   xmlns:svg="http://www.w3.org/2000/svg">
  <defs
     id="defs834" />
  <sodipodi:namedview
     id="namedview832"
     pagecolor="#ffffff"
     bordercolor="#666666"
     borderopacity="1.0"
     inkscape:pageshadow="2"
     inkscape:pageopacity="0.0"
     inkscape:pagecheckerboard="0"
     showgrid="false"
     fit-margin-top="0"
     fit-margin-left="0"
     fit-margin-right="0"
     fit-margin-bottom="0"
     inkscape:zoom="3.439062"
     inkscape:cx="218.08272"
     inkscape:cy="91.303966"
     inkscape:window-width="3840"
     inkscape:window-height="2027"
     inkscape:window-x="0"
     inkscape:window-y="32"
     inkscape:window-maximized="1"
     inkscape:current-layer="svg830" />
  <g
     aria-label="midis2jam2"
     style="font-size:14.5406px;line-height:1.25;font-family:'Tw Cen MT Condensed Extra Bold';-inkscape-font-specification:'Tw Cen MT Condensed Extra Bold, ';fill:#ffffff;stroke:#ffffff;stroke-width:0.364"
     id="g826"
     transform="translate(-5.0034116,-5.0025567)">
    <path
       d="m 75.5,102.12 q 1.48,0 2.38,0.91 0.92,0.9 0.92,2.53 v 4.73 h -2.04 v -4.45 q 0,-0.94 -0.48,-1.44 -0.48,-0.5 -1.3,-0.5 -0.83,0 -1.33,0.5 -0.48,0.5 -0.48,1.44 v 4.45 h -2.03 v -4.45 q 0,-0.94 -0.48,-1.44 -0.48,-0.5 -1.31,-0.5 -0.85,0 -1.34,0.5 -0.48,0.5 -0.48,1.44 v 4.45 h -2.04 v -8.06 h 2.04 v 0.98 q 0.4,-0.51 1,-0.8 0.63,-0.3 1.37,-0.3 0.95,0 1.69,0.41 0.74,0.4 1.15,1.14 0.39,-0.7 1.13,-1.12 0.76,-0.42 1.63,-0.42 z m 6.27,-0.85 q -0.54,0 -0.9,-0.33 -0.36,-0.35 -0.36,-0.86 0,-0.5 0.35,-0.84 0.37,-0.35 0.9,-0.35 0.54,0 0.9,0.35 0.36,0.33 0.36,0.84 0,0.51 -0.37,0.86 -0.35,0.33 -0.88,0.33 z m 1,0.96 v 8.06 h -2.04 v -8.06 z m 1.48,4 q 0,-1.22 0.48,-2.16 0.5,-0.95 1.34,-1.46 0.84,-0.5 1.88,-0.5 0.78,0 1.5,0.34 0.7,0.34 1.13,0.9 v -3.82 h 2.06 v 10.76 h -2.06 v -1.2 q -0.38,0.6 -1.06,0.97 -0.69,0.36 -1.59,0.36 -1.02,0 -1.86,-0.52 -0.84,-0.53 -1.34,-1.47 -0.48,-0.96 -0.48,-2.2 z m 6.34,0.03 q 0,-0.74 -0.29,-1.26 -0.29,-0.54 -0.78,-0.82 -0.5,-0.29 -1.07,-0.29 -0.56,0 -1.04,0.28 -0.48,0.27 -0.79,0.81 -0.29,0.53 -0.29,1.25 0,0.73 0.3,1.28 0.3,0.54 0.78,0.83 0.5,0.3 1.04,0.3 0.57,0 1.07,-0.28 0.49,-0.3 0.78,-0.82 0.3,-0.54 0.3,-1.28 z m 5.08,-4.99 q -0.54,0 -0.9,-0.33 -0.35,-0.35 -0.35,-0.86 0,-0.5 0.34,-0.84 0.37,-0.35 0.9,-0.35 0.54,0 0.9,0.35 0.36,0.33 0.36,0.84 0,0.51 -0.37,0.86 -0.35,0.33 -0.88,0.33 z m 1,0.96 v 8.06 h -2.04 v -8.06 z m 5.09,8.19 q -0.99,0 -1.78,-0.35 -0.78,-0.36 -1.25,-0.97 -0.45,-0.61 -0.49,-1.36 h 2.05 q 0.06,0.47 0.45,0.78 0.4,0.3 1,0.3 0.59,0 0.9,-0.23 0.34,-0.23 0.34,-0.6 0,-0.39 -0.4,-0.58 -0.4,-0.2 -1.27,-0.44 -0.9,-0.21 -1.49,-0.45 -0.56,-0.23 -0.98,-0.7 -0.41,-0.49 -0.41,-1.3 0,-0.67 0.38,-1.22 0.39,-0.56 1.1,-0.88 0.73,-0.32 1.7,-0.32 1.44,0 2.3,0.73 0.86,0.71 0.95,1.93 h -1.95 q -0.05,-0.48 -0.41,-0.75 -0.35,-0.3 -0.94,-0.3 -0.56,0 -0.86,0.21 -0.3,0.2 -0.3,0.57 0,0.4 0.41,0.62 0.41,0.2 1.27,0.42 0.87,0.22 1.44,0.46 0.57,0.23 0.97,0.72 0.42,0.48 0.44,1.28 0,0.7 -0.4,1.25 -0.37,0.56 -1.1,0.88 -0.71,0.3 -1.67,0.3 z M 107,108 q 1.4,-1.17 2.23,-1.94 0.83,-0.79 1.38,-1.63 0.56,-0.84 0.56,-1.66 0,-0.74 -0.35,-1.16 -0.35,-0.42 -1.08,-0.42 -0.73,0 -1.12,0.5 -0.4,0.47 -0.4,1.31 h -1.98 q 0.06,-1.74 1.03,-2.64 0.99,-0.9 2.5,-0.9 1.66,0 2.55,0.88 0.88,0.88 0.88,2.32 0,1.13 -0.6,2.16 -0.62,1.03 -1.4,1.8 -0.79,0.76 -2.05,1.84 h 4.28 v 1.68 h -7.18 v -1.5 z m 8.98,-6.73 q -0.55,0 -0.92,-0.33 -0.35,-0.35 -0.35,-0.86 0,-0.5 0.35,-0.84 0.37,-0.35 0.92,-0.35 0.54,0 0.89,0.35 0.35,0.33 0.35,0.84 0,0.51 -0.35,0.86 -0.35,0.33 -0.9,0.33 z m 1,10.34 q 0,1.34 -0.67,1.92 -0.65,0.6 -1.89,0.6 h -0.9 v -1.73 h 0.58 q 0.47,0 0.66,-0.2 0.19,-0.17 0.19,-0.57 v -9.4 h 2.03 z m 1.49,-5.38 q 0,-1.22 0.48,-2.16 0.49,-0.95 1.32,-1.46 0.84,-0.5 1.87,-0.5 0.9,0 1.57,0.36 0.69,0.36 1.1,0.91 v -1.15 h 2.05 v 8.06 h -2.05 v -1.18 q -0.4,0.57 -1.1,0.95 -0.68,0.36 -1.58,0.36 -1.02,0 -1.86,-0.52 -0.83,-0.53 -1.32,-1.47 -0.48,-0.96 -0.48,-2.2 z m 6.34,0.03 q 0,-0.74 -0.3,-1.26 -0.29,-0.54 -0.78,-0.82 -0.5,-0.29 -1.06,-0.29 -0.57,0 -1.05,0.28 -0.48,0.27 -0.78,0.81 -0.3,0.53 -0.3,1.25 0,0.73 0.3,1.28 0.3,0.54 0.78,0.83 0.5,0.3 1.05,0.3 0.57,0 1.06,-0.28 0.5,-0.3 0.78,-0.82 0.3,-0.54 0.3,-1.28 z m 14.04,-4.14 q 1.48,0 2.39,0.91 0.91,0.9 0.91,2.53 v 4.73 h -2.03 v -4.45 q 0,-0.94 -0.48,-1.44 -0.48,-0.5 -1.31,-0.5 -0.83,0 -1.33,0.5 -0.47,0.5 -0.47,1.44 v 4.45 h -2.04 v -4.45 q 0,-0.94 -0.48,-1.44 -0.48,-0.5 -1.3,-0.5 -0.85,0 -1.35,0.5 -0.48,0.5 -0.48,1.44 v 4.45 h -2.03 v -8.06 h 2.03 v 0.98 q 0.4,-0.51 1,-0.8 0.63,-0.3 1.37,-0.3 0.95,0 1.69,0.41 0.74,0.4 1.15,1.14 0.4,-0.7 1.13,-1.12 0.76,-0.42 1.63,-0.42 z m 5.65,5.88 q 1.39,-1.17 2.22,-1.94 0.83,-0.79 1.38,-1.63 0.55,-0.84 0.55,-1.66 0,-0.74 -0.35,-1.16 -0.35,-0.42 -1.07,-0.42 -0.73,0 -1.12,0.5 -0.4,0.47 -0.41,1.31 h -1.98 q 0.06,-1.74 1.04,-2.64 0.98,-0.9 2.5,-0.9 1.65,0 2.54,0.88 0.89,0.88 0.89,2.32 0,1.13 -0.61,2.16 -0.61,1.03 -1.4,1.8 -0.78,0.76 -2.05,1.84 h 4.29 v 1.68 h -7.18 v -1.5 z"
       style="font-weight:600;font-family:Poppins;-inkscape-font-specification:'Poppins Semi-Bold'"
       transform="translate(-41.24,-86.73)"
       id="path824" />
  </g>
  <path
     d="m 5.4265884,25.037443 -0.46,-0.14 -0.34,-0.28 -0.35,-0.28 -0.22,-0.47 c -0.2,-0.41 -0.23,-0.5 -0.27,-0.8 a 5.65,5.65 0 0 1 -0.05,-0.44 0.3,0.3 0 0 0 -0.07,-0.19 0.84,0.84 0 0 1 -0.12,-0.26 c -0.05,-0.17 -0.06,-0.2 -0.02,-0.42 0.05,-0.24 0.13,-0.4 0.18,-0.37 0.01,0.01 0.03,0 0.04,-0.03 0.01,-0.02 0.06,-0.05 0.12,-0.07 a 0.24,0.24 0 0 0 0.14,-0.09 5.23,5.23 0 0 0 0.28,-1.29 c 0,-0.2 0,-0.24 0.08,-0.34 0.07,-0.1 0.13,-0.3 0.29,-0.94 l 0.2,-0.84 c 0,-0.02 -0.02,-0.02 -0.05,-0.02 -0.05,0 -0.1,-0.18 -0.07,-0.23 l 0.04,-0.22 c 0,-0.1 0.04,-0.23 0.06,-0.27 0.02,-0.05 0.06,-0.24 0.08,-0.42 0.05,-0.38 0.1,-0.53 0.17,-0.55 0.04,-0.02 0.06,-0.08 0.08,-0.24 0,-0.12 0.04,-0.3 0.07,-0.4 0.04,-0.14 0.06,-0.17 0.14,-0.18 0.07,-0.02 0.1,-0.05 0.12,-0.11 l 0.05,-0.2 c 0.68,-3.05 1.53,-6.3099997 2.12,-8.8299997 0.19,-0.8 0.2,-1.03 0.03,-1.42 -0.1,-0.23 -0.13,-0.28 -0.39,-0.5 -0.18,-0.17 -0.73,-0.55 -1.59,-1.1 -0.72,-0.48 -1.33,-0.87 -1.36,-0.87 -0.03,0 -0.08,0 -0.12,0.03 -0.05,0.04 -0.06,0.04 -0.1,-0.03 -0.02,-0.04 -0.04,-0.05 -0.04,-0.03 0,0.03 -0.06,0 -0.16,-0.06 -0.17,-0.1 -0.17,-0.1 -0.27,-0.04 -0.08,0.05 -0.1,0.05 -0.15,0.02 -0.1,-0.07 -0.2,-0.13 -0.63,-0.37 -0.4,-0.22 -0.65,-0.4 -0.6,-0.46 0,-0.02 0,-0.03 -0.03,-0.03 -0.02,0 -0.33,-0.16 -0.68,-0.35999997 a 13.34,13.34 0 0 0 -1.57999995,-0.78 c 0,-0.02 0.13,-0.05 0.28,-0.08 0.2,-0.04 0.3,-0.05 0.37,-0.02 0.27,0.1 2.06999995,0.4 2.11999995,0.35 0.06,-0.04 0.12,-0.02 0.7,0.31 0.28,0.16 0.52,0.28 0.53,0.28 0.05,0 0.14,0.14999997 0.16,0.24999997 0.01,0.08 0.05,0.13 0.13,0.18 0.06,0.04 0.14,0.07 0.17,0.07 0.08,0 0.13,0.07 0.16,0.2 l 0.02,0.12 2.84,1.45 0.35,0.31 0.36,0.32 0.2,0.43 0.2,0.43 0.02,0.45 c 0.02,0.4 0.01,0.5 -0.06,0.9 a 15.74,15.74 0 0 1 -0.17,0.83 l -0.04,0.3 -0.17,0.95 c -0.1,0.58 -0.13,0.78 -0.1,0.82 0.02,0.03 0.04,0.11 0.05,0.17 0.02,0.1 0.05,0.13 0.13,0.16 0.13,0.05 0.3,0.23 0.33,0.34 0.1,0.4099997 -0.26,0.7599997 -0.46,0.4499997 a 0.53,0.53 0 0 1 -0.05,-0.5299997 c 0.06,-0.13 0.06,-0.14 0.01,-0.18 -0.12,-0.1 -0.15,-0.05 -0.22,0.38 l -0.12,0.6299997 c -0.03,0.18 -0.03,0.24 0.01,0.37 l 0.07,0.25 c 0,0.04 0.02,0.07 0.04,0.06 0.02,0 0.03,-0.03 0.02,-0.05 -0.01,-0.06 0.13,-0.13 0.17,-0.09 0.02,0.03 0.06,0.03 0.1,0 0.07,-0.02 0.1,0 0.2,0.08 l 0.12,0.13 c 0,0.02 -0.01,0.03 -0.03,0.02 -0.01,-0.01 -0.05,0.04 -0.09,0.11 -0.11,0.24 -0.4,0.37 -0.54,0.24 -0.05,-0.04 -0.07,-0.04 -0.14,0.04 -0.05,0.04 -0.1,0.08 -0.12,0.08 -0.06,0 -0.04,0.1 0.03,0.13 0.06,0.03 0.09,0.03 0.17,-0.05 a 0.3,0.3 0 0 1 0.2,-0.1 c 0.17,0 0.22,0.04 0.22,0.15 0,0.08 -0.03,0.14 -0.13,0.23 -0.07,0.07 -0.13,0.15 -0.13,0.19 0,0.14 -0.25,0.5 -0.34,0.5 a 0.2,0.2 0 0 1 -0.09,-0.03 c -0.07,-0.05 -0.16,0.07 -0.2,0.26 -0.01,0.1 -0.04,0.18 -0.05,0.2 0,0.02 0.06,0.03 0.17,0.02 0.16,-0.01 0.2,-0.03 0.3,-0.13 0.16,-0.16 0.34,-0.2 0.49,-0.14 0.23,0.1 0.17,0.37 -0.12,0.54 -0.1,0.06 -0.16,0.13 -0.17,0.18 -0.02,0.05 -0.04,0.08 -0.07,0.08 -0.02,0 -0.04,0.06 -0.04,0.15 0,0.08 -0.02,0.17 -0.04,0.2 -0.06,0.06 -0.22,0.1 -0.3,0.05 -0.04,-0.02 -0.05,-0.02 -0.05,0.03 l -0.08,0.41 a 768.23,768.23 0 0 0 -1.4,7.36 c -0.02,0 -0.08,0 -0.13,-0.02 l -0.1,-0.03 -0.08,0.44 c -0.1,0.57 -0.09,0.73 0.1,0.9 0.08,0.07 0.16,0.12 0.17,0.1 0,0 0.24,-0.91 0.5,-2 0.48,-1.95 0.6,-2.35 1.06,-3.62 l 0.09,-0.26 -0.08,-0.59 -0.07,-0.59 0.24,-0.55 0.24,-0.56 0.5,-0.18 c 0.46,-0.18 0.52,-0.19 0.63,-0.14 a 12.91,12.91 0 0 0 0.6,0.2 c 0.04,0.03 0.16,0.07 0.27,0.11 0.1699996,0.07 0.2599996,0.14 0.7499996,0.6 l 0.54,0.54 0.38,0.69 0.38,0.69 0.08,0.46 0.14,0.75 0.05,0.3 -0.15,0.56 -0.15,0.61 c 0,0.03 -0.08,0.1 -0.17,0.16 -0.1,0.05 -0.3,0.18 -0.45,0.28 l -0.27,0.18 -0.29,-0.05 c -0.64,-0.11 -0.9999996,-0.21 -1.0899996,-0.3 -0.12,-0.12 -0.2,-0.09 -0.3,0.12 l -0.86,1.87 -0.79,1.7 -0.3,0.26 -0.48,0.38 c -0.18,0.12 -0.75,0.32 -0.9,0.31 -0.05,0 -0.3,-0.06 -0.55,-0.14 z m 2.14,-12.92 c 0.09,-0.1 0.08,-0.16 -0.03,-0.16 -0.07,0 -0.08,0.02 -0.1,0.23 -0.02,0.12 -0.02,0.13 0.02,0.08 z"
     style="fill:#ffffff;stroke-width:0.0328172"
     id="path828" />
</svg>
