<svg xmlns="http://www.w3.org/2000/svg" width="434.13" height="132.96" viewBox="0 0 114.86 35.18"><g aria-label="midis2jam2" style="font-size:14.5406px;line-height:1.25;font-family:&quot;Tw Cen MT Condensed Extra Bold&quot;;-inkscape-font-specification:&quot;Tw Cen MT Condensed Extra Bold, &quot;;stroke:#fff;fill:#fff;stroke-width:.364"><path d="M75.5 102.12q1.48 0 2.38.91.92.9.92 2.53v4.73h-2.04v-4.45q0-.94-.48-1.44t-1.3-.5q-.83 0-1.33.5-.48.5-.48 1.44v4.45h-2.03v-4.45q0-.94-.48-1.44t-1.31-.5q-.85 0-1.34.5-.48.5-.48 1.44v4.45h-2.04v-8.06h2.04v.98q.4-.51 1-.8.63-.3 1.37-.3.95 0 1.69.41.74.4 1.15 1.14.39-.7 1.13-1.12.76-.42 1.63-.42zM81.77 101.27q-.54 0-.9-.33-.36-.35-.36-.86 0-.5.35-.84.37-.35.9-.35.54 0 .9.35.36.33.36.84t-.37.86q-.35.33-.88.33zm1 .96v8.06h-2.04v-8.06zM84.25 106.23q0-1.22.48-2.16.5-.95 1.34-1.46.84-.5 1.88-.5.78 0 1.5.34.7.34 1.13.9v-3.82h2.06v10.76h-2.06v-1.2q-.38.6-1.06.97-.69.36-1.59.36-1.02 0-1.86-.52-.84-.53-1.34-1.47-.48-.96-.48-2.2zm6.34.03q0-.74-.29-1.26-.29-.54-.78-.82-.5-.29-1.07-.29-.56 0-1.04.28-.48.27-.79.81-.29.53-.29 1.25 0 .73.3 1.28.3.54.78.83.5.3 1.04.3.57 0 1.07-.28.49-.3.78-.82.3-.54.3-1.28zM95.67 101.27q-.54 0-.9-.33-.35-.35-.35-.86 0-.5.34-.84.37-.35.9-.35.54 0 .9.35.36.33.36.84t-.37.86q-.35.33-.88.33zm1 .96v8.06h-2.04v-8.06zM101.76 110.42q-.99 0-1.78-.35-.78-.36-1.25-.97-.45-.61-.49-1.36h2.05q.06.47.45.78.4.3 1 .3.59 0 .9-.23.34-.23.34-.6 0-.39-.4-.58-.4-.2-1.27-.44-.9-.21-1.49-.45-.56-.23-.98-.7-.41-.49-.41-1.3 0-.67.38-1.22.39-.56 1.1-.88.73-.32 1.7-.32 1.44 0 2.3.73.86.71.95 1.93h-1.95q-.05-.48-.41-.75-.35-.3-.94-.3-.56 0-.86.21-.3.2-.3.57 0 .4.41.62.41.2 1.27.42.87.22 1.44.46.57.23.97.72.42.48.44 1.28 0 .7-.4 1.25-.37.56-1.1.88-.71.3-1.67.3zM107 108q1.4-1.17 2.23-1.94.83-.79 1.38-1.63.56-.84.56-1.66 0-.74-.35-1.16-.35-.42-1.08-.42-.73 0-1.12.5-.4.47-.4 1.31h-1.98q.06-1.74 1.03-2.64.99-.9 2.5-.9 1.66 0 2.55.88.88.88.88 2.32 0 1.13-.6 2.16-.62 1.03-1.4 1.8-.79.76-2.05 1.84h4.28v1.68h-7.18v-1.5zM115.98 101.27q-.55 0-.92-.33-.35-.35-.35-.86 0-.5.35-.84.37-.35.92-.35.54 0 .89.35.35.33.35.84t-.35.86q-.35.33-.9.33zm1 10.34q0 1.34-.67 1.92-.65.6-1.89.6h-.9v-1.73h.58q.47 0 .66-.2.19-.17.19-.57v-9.4h2.03zM118.47 106.23q0-1.22.48-2.16.49-.95 1.32-1.46.84-.5 1.87-.5.9 0 1.57.36.69.36 1.1.91v-1.15h2.05v8.06h-2.05v-1.18q-.4.57-1.1.95-.68.36-1.58.36-1.02 0-1.86-.52-.83-.53-1.32-1.47-.48-.96-.48-2.2zm6.34.03q0-.74-.3-1.26-.29-.54-.78-.82-.5-.29-1.06-.29-.57 0-1.05.28-.48.27-.78.81-.3.53-.3 1.25 0 .73.3 1.28.3.54.78.83.5.3 1.05.3.57 0 1.06-.28.5-.3.78-.82.3-.54.3-1.28zM138.85 102.12q1.48 0 2.39.91.91.9.91 2.53v4.73h-2.03v-4.45q0-.94-.48-1.44t-1.31-.5q-.83 0-1.33.5-.47.5-.47 1.44v4.45h-2.04v-4.45q0-.94-.48-1.44t-1.3-.5q-.85 0-1.35.5-.48.5-.48 1.44v4.45h-2.03v-8.06h2.03v.98q.4-.51 1-.8.63-.3 1.37-.3.95 0 1.69.41.74.4 1.15 1.14.4-.7 1.13-1.12.76-.42 1.63-.42zM144.5 108q1.39-1.17 2.22-1.94.83-.79 1.38-1.63.55-.84.55-1.66 0-.74-.35-1.16-.35-.42-1.07-.42-.73 0-1.12.5-.4.47-.41 1.31h-1.98q.06-1.74 1.04-2.64.98-.9 2.5-.9 1.65 0 2.54.88.89.88.89 2.32 0 1.13-.61 2.16-.61 1.03-1.4 1.8-.78.76-2.05 1.84h4.29v1.68h-7.18v-1.5z" style="font-weight:600;font-family:Poppins;-inkscape-font-specification:&quot;Poppins Semi-Bold&quot;" transform="translate(-41.24 -86.73)"/></g><path d="m51.67 116.77-.46-.14-.34-.28-.35-.28-.22-.47c-.2-.41-.23-.5-.27-.8a5.65 5.65 0 0 1-.05-.44.3.3 0 0 0-.07-.19.84.84 0 0 1-.12-.26c-.05-.17-.06-.2-.02-.42.05-.24.13-.4.18-.37.01.01.03 0 .04-.03.01-.02.06-.05.12-.07a.24.24 0 0 0 .14-.09 5.23 5.23 0 0 0 .28-1.29c0-.2 0-.24.08-.34.07-.1.13-.3.29-.94l.2-.84c0-.02-.02-.02-.05-.02-.05 0-.1-.18-.07-.23l.04-.22c0-.1.04-.23.06-.27.02-.05.06-.24.08-.42.05-.38.1-.53.17-.55.04-.02.06-.08.08-.24 0-.12.04-.3.07-.4.04-.14.06-.17.14-.18.07-.02.1-.05.12-.11l.05-.2c.68-3.05 1.53-6.31 2.12-8.83.19-.8.2-1.03.03-1.42-.1-.23-.13-.28-.39-.5-.18-.17-.73-.55-1.59-1.1-.72-.48-1.33-.87-1.36-.87-.03 0-.08 0-.12.03-.05.04-.06.04-.1-.03-.02-.04-.04-.05-.04-.03 0 .03-.06 0-.16-.06-.17-.1-.17-.1-.27-.04-.08.05-.1.05-.15.02-.1-.07-.2-.13-.63-.37-.4-.22-.65-.4-.6-.46 0-.02 0-.03-.03-.03-.02 0-.33-.16-.68-.36a13.34 13.34 0 0 0-1.58-.78c0-.02.13-.05.28-.08.2-.04.3-.05.37-.02.27.1 2.07.4 2.12.35.06-.04.12-.02.7.31.28.16.52.28.53.28.05 0 .14.15.16.25.01.08.05.13.13.18.06.04.14.07.17.07.08 0 .13.07.16.2l.02.12 2.84 1.45.35.31.36.32.2.43.2.43.02.45c.02.4.01.5-.06.9a15.74 15.74 0 0 1-.17.83l-.04.3-.17.95c-.1.58-.13.78-.1.82.02.03.04.11.05.17.02.1.05.13.13.16.13.05.3.23.33.34.1.41-.26.76-.46.45a.53.53 0 0 1-.05-.53c.06-.13.06-.14.01-.18-.12-.1-.15-.05-.22.38l-.12.63c-.03.18-.03.24.01.37l.07.25c0 .04.02.07.04.06.02 0 .03-.03.02-.05-.01-.06.13-.13.17-.09.02.03.06.03.1 0 .07-.02.1 0 .2.08l.12.13c0 .02-.01.03-.03.02-.01-.01-.05.04-.09.11-.11.24-.4.37-.54.24-.05-.04-.07-.04-.14.04-.05.04-.1.08-.12.08-.06 0-.04.1.03.13.06.03.09.03.17-.05a.3.3 0 0 1 .2-.1c.17 0 .22.04.22.15 0 .08-.03.14-.13.23-.07.07-.13.15-.13.19 0 .14-.25.5-.34.5a.2.2 0 0 1-.09-.03c-.07-.05-.16.07-.2.26-.01.1-.04.18-.05.2 0 .02.06.03.17.02.16-.01.2-.03.3-.13.16-.16.34-.2.49-.14.23.1.17.37-.12.54-.1.06-.16.13-.17.18-.02.05-.04.08-.07.08-.02 0-.04.06-.04.15 0 .08-.02.17-.04.2-.06.06-.22.1-.3.05-.04-.02-.05-.02-.05.03l-.08.41a768.23 768.23 0 0 0-1.4 7.36c-.02 0-.08 0-.13-.02l-.1-.03-.08.44c-.1.57-.09.73.1.9.08.07.16.12.17.1 0 0 .24-.91.5-2 .48-1.95.6-2.35 1.06-3.62l.09-.26-.08-.59-.07-.59.24-.55.24-.56.5-.18c.46-.18.52-.19.63-.14a12.91 12.91 0 0 0 .6.2c.04.03.16.07.27.11.17.07.26.14.75.6l.54.54.38.69.38.69.08.46.14.75.05.3-.15.56-.15.61c0 .03-.08.1-.17.16-.1.05-.3.18-.45.28l-.27.18-.29-.05c-.64-.11-1-.21-1.09-.3-.12-.12-.2-.09-.3.12l-.86 1.87-.79 1.7-.3.26-.48.38c-.18.12-.75.32-.9.31-.05 0-.3-.06-.55-.14zm2.14-12.92c.09-.1.08-.16-.03-.16-.07 0-.08.02-.1.23-.02.12-.02.13.02.08l.11-.15z" style="fill:#fff;stroke-width:.0328172" transform="translate(-41.24 -86.73)"/></svg>